<svg version="1.1" id="Layer_1" xmlns="http://www.w3.org/2000/svg" xmlns:xlink="http://www.w3.org/1999/xlink" x="0px" y="0px"
	 width="100%" viewBox="0 0 1024 1024" enable-background="new 0 0 1024 1024" xml:space="preserve">
<path fill="#000000" opacity="1.000000" stroke="none" 
	d="
M940.000000,1025.000000 
	C628.166687,1025.000000 316.833344,1024.992188 5.500030,1025.093140 
	C1.750884,1025.094360 0.905801,1024.249146 0.906913,1020.500000 
	C1.007246,682.166687 1.007246,343.833344 0.906913,5.500028 
	C0.905801,1.750903 1.750902,0.905800 5.500028,0.906912 
	C343.833344,1.007255 682.166687,1.007255 1020.500000,0.906912 
	C1024.249146,0.905800 1025.094360,1.750902 1025.093262,5.500027 
	C1024.992920,343.833344 1024.992798,682.166687 1025.093140,1020.500000 
	C1025.094238,1024.249146 1024.253296,1025.126343 1020.499268,1025.099976 
	C993.833923,1024.912476 967.166687,1025.000000 940.000000,1025.000000 
z"/>
<path fill="#FDFDFD" opacity="1.000000" stroke="none" 
	d="
M539.907104,448.204651 
	C562.133911,457.580200 583.976746,466.880341 605.903320,475.978729 
	C608.981750,477.256134 610.121521,478.751953 610.018372,482.167938 
	C609.736816,491.492279 609.872864,500.831116 609.957275,510.163208 
	C609.977173,512.360168 609.563538,513.732666 607.245544,514.706787 
	C544.186584,541.205750 481.163574,567.790405 418.129761,594.349365 
	C417.551697,594.593018 416.909271,594.684021 416.039246,594.914551 
	C416.039246,581.166992 416.170685,567.671875 415.945221,554.182800 
	C415.890015,550.879822 417.910309,550.523804 420.031708,549.646912 
	C458.389008,533.791809 496.736816,517.913757 535.085083,502.036987 
	C539.799133,500.085327 544.504456,498.112671 550.192383,495.741852 
	C536.272400,489.932007 523.352905,484.513000 510.412598,479.144135 
	C480.356812,466.674011 450.318237,454.161255 420.191284,441.865295 
	C416.797974,440.480377 415.908966,438.712097 415.961243,435.272095 
	C416.156189,422.446350 416.039093,409.615845 416.039093,396.003876 
	C457.477203,413.470490 498.513519,430.767761 539.907104,448.204651 
z"/>
</svg>