<svg version="1.1" id="Layer_1" xmlns="http://www.w3.org/2000/svg" xmlns:xlink="http://www.w3.org/1999/xlink" x="0px" y="0px"
	 width="100%" viewBox="0 0 1024 1024" enable-background="new 0 0 1024 1024" xml:space="preserve">
<path fill="#000000" opacity="1.000000" stroke="none" 
	d="
M500.000000,1025.000000 
	C333.333344,1025.000000 167.166672,1025.000000 1.000000,1025.000000 
	C1.000000,683.666687 1.000000,342.333344 1.000000,1.000000 
	C342.333344,1.000000 683.666687,1.000000 1025.000000,1.000000 
	C1025.000000,342.333344 1025.000000,683.666687 1025.000000,1025.000000 
	C850.166687,1025.000000 675.333313,1025.000000 500.000000,1025.000000 
M753.049927,490.500000 
	C753.049927,419.890106 753.049927,349.280243 753.049927,277.052521 
	C627.823608,297.215576 503.109833,318.120636 377.851776,338.682556 
	C377.851776,457.517700 377.851776,575.999512 377.851776,694.680847 
	C374.061035,692.190674 370.857788,689.811646 367.408844,687.868713 
	C353.105621,679.811218 337.486206,677.998962 321.496613,679.185669 
	C306.612244,680.290405 292.797516,684.737915 281.274017,694.784363 
	C273.067505,701.939148 267.296509,710.509766 267.055511,721.740356 
	C266.746857,736.124817 274.136536,746.735291 285.706299,753.915710 
	C312.314636,770.429077 340.136261,770.920471 367.886383,757.082397 
	C384.290558,748.902161 392.249023,735.226868 392.205780,716.304443 
	C391.954010,606.148132 392.082489,495.990875 392.082489,385.833923 
	C392.082489,384.018005 392.082489,382.202118 392.082489,379.926178 
	C507.753418,360.909485 623.217529,341.926819 738.742004,322.934204 
	C738.742004,432.269836 738.742004,541.142517 738.742004,650.515503 
	C737.667725,649.804504 737.000244,649.402466 736.374878,648.943115 
	C712.096558,631.113770 673.456238,629.808777 648.196533,646.154968 
	C636.117188,653.971863 627.745178,664.345459 628.057678,679.580200 
	C628.335083,693.102966 635.635925,703.067139 646.522949,709.831360 
	C673.486023,726.583740 701.597839,726.964600 729.581177,712.685425 
	C745.765625,704.426941 753.281982,690.597351 753.176758,671.983337 
	C752.836792,611.823914 753.049927,551.661377 753.049927,490.500000 
z"/>
<path fill="#FEFEFE" opacity="1.000000" stroke="none" 
	d="
M753.049927,491.000000 
	C753.049927,551.661377 752.836792,611.823914 753.176758,671.983337 
	C753.281982,690.597351 745.765625,704.426941 729.581177,712.685425 
	C701.597839,726.964600 673.486023,726.583740 646.522949,709.831360 
	C635.635925,703.067139 628.335083,693.102966 628.057678,679.580200 
	C627.745178,664.345459 636.117188,653.971863 648.196533,646.154968 
	C673.456238,629.808777 712.096558,631.113770 736.374878,648.943115 
	C737.000244,649.402466 737.667725,649.804504 738.742004,650.515503 
	C738.742004,541.142517 738.742004,432.269836 738.742004,322.934204 
	C623.217529,341.926819 507.753418,360.909485 392.082489,379.926178 
	C392.082489,382.202118 392.082489,384.018005 392.082489,385.833923 
	C392.082489,495.990875 391.954010,606.148132 392.205780,716.304443 
	C392.249023,735.226868 384.290558,748.902161 367.886383,757.082397 
	C340.136261,770.920471 312.314636,770.429077 285.706299,753.915710 
	C274.136536,746.735291 266.746857,736.124817 267.055511,721.740356 
	C267.296509,710.509766 273.067505,701.939148 281.274017,694.784363 
	C292.797516,684.737915 306.612244,680.290405 321.496613,679.185669 
	C337.486206,677.998962 353.105621,679.811218 367.408844,687.868713 
	C370.857788,689.811646 374.061035,692.190674 377.851776,694.680847 
	C377.851776,575.999512 377.851776,457.517700 377.851776,338.682556 
	C503.109833,318.120636 627.823608,297.215576 753.049927,277.052521 
	C753.049927,349.280243 753.049927,419.890106 753.049927,491.000000 
z"/>
</svg>