<svg version="1.1" id="Layer_1" xmlns="http://www.w3.org/2000/svg" xmlns:xlink="http://www.w3.org/1999/xlink" x="0px" y="0px"
	 width="100%" viewBox="0 0 1024 1024" enable-background="new 0 0 1024 1024" xml:space="preserve">
<path fill="#000000" opacity="1.000000" stroke="none" 
	d="
M467.000000,1025.000000 
	C311.333344,1025.000000 156.166672,1025.000000 1.000000,1025.000000 
	C1.000000,683.666687 1.000000,342.333344 1.000000,1.000000 
	C342.333344,1.000000 683.666687,1.000000 1025.000000,1.000000 
	C1025.000000,342.333344 1025.000000,683.666687 1025.000000,1025.000000 
	C839.166687,1025.000000 653.333313,1025.000000 467.000000,1025.000000 
M698.500000,675.999878 
	C539.368408,675.999878 380.236847,675.994812 221.105255,676.030151 
	C217.286301,676.031006 213.394592,676.092834 209.661224,676.791260 
	C194.117661,679.699036 182.928604,688.486755 177.084763,703.148926 
	C171.151443,718.035645 173.368286,732.270203 182.948090,745.115601 
	C192.285568,757.636047 205.397003,762.022095 220.519547,762.019775 
	C414.643463,761.990051 608.767395,762.005371 802.891296,761.965942 
	C807.205505,761.965088 811.545593,761.668396 815.829346,761.146484 
	C840.203186,758.177185 857.510986,731.922607 850.672668,708.423584 
	C844.753601,688.083557 828.890747,676.073486 807.476196,676.023132 
	C771.484314,675.938599 735.492065,675.999939 698.500000,675.999878 
M602.500061,477.139832 
	C475.671265,477.480560 348.842438,477.816681 222.013702,478.187561 
	C218.694931,478.197266 215.353302,478.402832 212.063263,478.831299 
	C198.290878,480.624878 188.743881,488.288055 183.602142,500.916321 
	C178.553528,513.315979 180.646301,525.213135 188.814133,535.708374 
	C196.643005,545.768250 207.332367,549.298584 219.984558,549.261169 
	C414.476593,548.685425 608.969177,548.285767 803.461548,547.808960 
	C807.278931,547.799561 811.117859,547.541504 814.908325,547.082153 
	C837.800537,544.307434 851.828857,517.637756 841.410156,497.026978 
	C834.129883,482.624878 822.219604,476.741455 806.492493,476.788361 
	C738.828613,476.990173 671.164307,477.035339 602.500061,477.139832 
M597.499634,351.524384 
	C664.821228,351.524384 732.142883,351.529266 799.464478,351.507233 
	C802.290466,351.506317 805.131470,351.396149 807.939819,351.096619 
	C823.494873,349.437653 834.010559,333.593597 829.538330,318.641724 
	C825.682922,305.751984 816.173218,299.478241 800.419434,299.477966 
	C608.785767,299.474548 417.152100,299.474457 225.518433,299.490875 
	C223.191864,299.491089 220.855560,299.622833 218.540344,299.856934 
	C200.529465,301.678314 189.887894,321.588135 198.410919,337.525848 
	C204.233444,348.413757 213.924789,351.577332 225.563461,351.570343 
	C349.208771,351.496124 472.854187,351.524323 597.499634,351.524384 
z"/>
<path fill="#FFFFFF" opacity="1.000000" stroke="none" 
	d="
M699.000000,675.999878 
	C735.492065,675.999939 771.484314,675.938599 807.476196,676.023132 
	C828.890747,676.073486 844.753601,688.083557 850.672668,708.423584 
	C857.510986,731.922607 840.203186,758.177185 815.829346,761.146484 
	C811.545593,761.668396 807.205505,761.965088 802.891296,761.965942 
	C608.767395,762.005371 414.643463,761.990051 220.519547,762.019775 
	C205.397003,762.022095 192.285568,757.636047 182.948090,745.115601 
	C173.368286,732.270203 171.151443,718.035645 177.084763,703.148926 
	C182.928604,688.486755 194.117661,679.699036 209.661224,676.791260 
	C213.394592,676.092834 217.286301,676.031006 221.105255,676.030151 
	C380.236847,675.994812 539.368408,675.999878 699.000000,675.999878 
z"/>
<path fill="#FEFEFE" opacity="1.000000" stroke="none" 
	d="
M603.000122,477.138672 
	C671.164307,477.035339 738.828613,476.990173 806.492493,476.788361 
	C822.219604,476.741455 834.129883,482.624878 841.410156,497.026978 
	C851.828857,517.637756 837.800537,544.307434 814.908325,547.082153 
	C811.117859,547.541504 807.278931,547.799561 803.461548,547.808960 
	C608.969177,548.285767 414.476593,548.685425 219.984558,549.261169 
	C207.332367,549.298584 196.643005,545.768250 188.814133,535.708374 
	C180.646301,525.213135 178.553528,513.315979 183.602142,500.916321 
	C188.743881,488.288055 198.290878,480.624878 212.063263,478.831299 
	C215.353302,478.402832 218.694931,478.197266 222.013702,478.187561 
	C348.842438,477.816681 475.671265,477.480560 603.000122,477.138672 
z"/>
<path fill="#FAFAFA" opacity="1.000000" stroke="none" 
	d="
M596.999634,351.524353 
	C472.854187,351.524323 349.208771,351.496124 225.563461,351.570343 
	C213.924789,351.577332 204.233444,348.413757 198.410919,337.525848 
	C189.887894,321.588135 200.529465,301.678314 218.540344,299.856934 
	C220.855560,299.622833 223.191864,299.491089 225.518433,299.490875 
	C417.152100,299.474457 608.785767,299.474548 800.419434,299.477966 
	C816.173218,299.478241 825.682922,305.751984 829.538330,318.641724 
	C834.010559,333.593597 823.494873,349.437653 807.939819,351.096619 
	C805.131470,351.396149 802.290466,351.506317 799.464478,351.507233 
	C732.142883,351.529266 664.821228,351.524384 596.999634,351.524353 
z"/>
</svg>