<svg class="options-icon" version="1.1" id="Layer_1" xmlns="http://www.w3.org/2000/svg" xmlns:xlink="http://www.w3.org/1999/xlink" x="0px" y="0px"
	 width="100%" viewBox="0 0 1024 1024" enable-background="new 0 0 1024 1024" xml:space="preserve">
<path fill="#333333" opacity="1.000000" stroke="none" 
	d="
M466.000000,1025.000000 
	C312.166656,1025.000000 158.833313,1024.984131 5.500067,1025.094116 
	C1.750629,1025.096802 0.905801,1024.249146 0.906913,1020.500000 
	C1.007246,682.166687 1.007246,343.833344 0.906913,5.500028 
	C0.905801,1.750903 1.750902,0.905800 5.500028,0.906912 
	C343.833344,1.007255 682.166687,1.007255 1020.500000,0.906912 
	C1024.249146,0.905800 1025.094360,1.750902 1025.093262,5.500027 
	C1024.992920,343.833344 1024.992798,682.166687 1025.093140,1020.500000 
	C1025.094238,1024.249146 1024.249268,1025.095947 1020.499939,1025.093750 
	C835.833313,1024.986816 651.166687,1025.000000 466.000000,1025.000000 
z"/>
<path fill="#A6A6A6" opacity="1.000000" stroke="none" 
	d="
M645.333557,597.783020 
	C649.794922,614.298523 653.939697,630.672058 657.887390,647.092957 
	C665.747681,679.789124 673.400513,712.535706 681.408447,745.195374 
	C682.538452,749.804016 681.291809,750.604370 677.100525,750.614136 
	C666.450195,750.638977 655.789124,750.055542 644.723938,751.097900 
	C642.073120,751.885925 639.876465,752.511292 637.503540,752.505859 
	C626.223083,752.479797 614.942444,752.521667 603.661987,752.470276 
	C601.675537,752.461243 599.660706,752.488892 597.438843,751.177368 
	C595.514221,750.858521 594.038269,750.567566 592.562195,750.566833 
	C545.036194,750.543030 497.510254,750.544861 449.984283,750.560120 
	C448.663300,750.560486 447.342346,750.750122 445.581329,751.000610 
	C443.265045,751.773682 441.432861,752.471313 439.384308,752.476379 
	C427.458588,752.505920 415.532990,752.533875 403.607452,752.449585 
	C401.940979,752.437805 400.294830,752.266663 398.358521,751.251099 
	C387.288147,749.817261 376.636505,750.826965 366.007233,750.568542 
	C359.540588,750.411255 359.505402,750.513306 361.099670,743.863159 
	C372.479675,696.394653 383.872925,648.929443 395.274872,601.466248 
	C395.428772,600.825684 395.749298,600.225159 396.150635,599.235840 
	C398.551483,596.301941 401.591675,596.507568 404.561371,596.506348 
	C434.060760,596.494263 463.560181,596.506653 493.059570,596.498108 
	C503.701538,596.494995 504.239929,595.613525 498.883301,586.421326 
	C477.070343,548.989502 454.961853,511.731110 433.052185,474.355957 
	C431.121429,471.062347 429.238220,467.785645 429.167358,463.431152 
	C417.528076,443.222748 405.942841,423.402313 394.416901,403.547424 
	C393.386505,401.772430 392.135681,401.540955 390.274506,401.850006 
	C382.119263,403.204254 376.525970,399.583771 372.603394,392.643738 
	C368.427399,385.255219 364.225311,377.876556 359.806488,370.632751 
	C358.236847,368.059723 358.459991,366.834686 361.150574,365.274048 
	C369.164978,360.625488 369.089294,360.502502 364.483063,352.676453 
	C358.658569,342.780640 352.801331,332.903809 347.033325,322.975159 
	C343.538330,316.959106 344.574890,311.812225 349.735474,308.714050 
	C354.808441,305.668518 359.668640,307.334686 363.352570,313.535767 
	C370.152069,324.981415 376.962830,336.422058 383.579315,347.973389 
	C385.094940,350.619415 386.262848,351.009247 388.933319,349.428802 
	C392.155823,347.521729 395.483856,343.523438 398.844299,344.633698 
	C402.085968,345.704681 403.036041,350.682617 404.995300,353.937378 
	C408.170349,359.211914 411.257172,364.544312 414.218933,369.941345 
	C418.181549,377.162109 417.512939,383.561432 412.111298,389.743530 
	C410.688354,391.372040 409.695953,392.445038 411.111908,394.791138 
	C418.764374,407.470520 426.211426,420.273804 433.767914,433.011475 
	C434.060699,433.505005 434.747131,433.764984 435.600494,434.032227 
	C438.452972,433.840027 438.667236,436.114166 439.513123,437.565765 
	C462.324463,476.711517 485.461273,515.665955 508.374573,554.751648 
	C508.545685,555.043579 508.757843,555.296143 509.525238,555.944824 
	C509.422821,541.302612 509.686340,527.093384 509.337982,512.881714 
	C509.248383,509.225891 507.159698,507.098389 503.653046,506.250671 
	C502.192902,505.897675 500.702942,505.705841 499.244446,505.372253 
	C493.438110,504.044373 490.459442,500.028595 490.531219,493.723541 
	C490.599487,487.729462 493.581543,483.916534 499.290527,482.624786 
	C500.749878,482.294556 502.238892,482.097992 503.698273,481.742035 
	C507.212769,480.884918 509.198914,478.719208 509.351532,475.075134 
	C509.616547,468.748413 509.613129,462.416962 509.357635,456.090332 
	C509.173645,451.535278 506.343903,449.992767 502.170074,449.399078 
	C494.658691,448.330597 490.639465,443.959534 490.535858,437.382843 
	C490.431458,430.758392 493.793030,426.713470 500.300873,425.632629 
	C508.876648,424.208374 509.436432,423.559814 509.491516,414.709198 
	C509.519501,410.211151 509.581024,405.711182 509.463562,401.214874 
	C509.294769,394.754639 508.250305,393.608337 501.783508,392.425873 
	C491.405029,390.528168 486.987091,380.560852 492.913635,372.575256 
	C495.141205,369.573792 498.299744,368.923859 501.657074,368.505676 
	C507.783508,367.742584 509.229431,366.313110 509.429810,360.341370 
	C509.619720,354.681305 509.629150,349.010468 509.422974,343.350769 
	C509.221741,337.827209 507.900940,336.465942 502.410004,335.496826 
	C494.969543,334.183624 490.802948,330.187958 490.559052,324.132080 
	C490.299164,317.679016 494.573608,312.523163 500.969177,311.575226 
	C508.411346,310.472137 509.359283,309.452515 509.476776,302.096649 
	C509.553955,297.266144 509.565216,292.432892 509.472321,287.602722 
	C509.330811,280.246521 507.692261,278.641296 500.143860,278.527008 
	C493.314301,278.423584 486.482391,278.560028 479.652679,278.462524 
	C477.724335,278.434998 475.614197,278.801971 473.974640,276.581970 
	C472.803619,270.625214 473.533905,264.970093 473.326538,259.339905 
	C473.252808,257.338654 474.370270,256.491028 476.121277,255.798248 
	C490.428772,250.137741 504.713348,244.418518 518.966858,238.623581 
	C520.699951,237.918991 522.078552,238.172531 523.701050,238.826645 
	C537.666565,244.457123 551.633606,250.086472 565.671326,255.532791 
	C568.355103,256.574036 569.087280,258.112030 568.985474,260.768860 
	C568.801086,265.582794 568.888062,270.407104 568.743835,275.692383 
	C567.156677,278.342194 564.916382,278.440704 562.596313,278.469269 
	C555.930603,278.551270 549.262390,278.356049 542.599915,278.559418 
	C535.684387,278.770477 533.757507,280.714905 533.556641,287.652435 
	C533.407166,292.815491 533.358704,297.988007 533.589111,303.148621 
	C533.841553,308.803955 535.230713,310.299347 540.859741,311.523438 
	C548.233215,313.126923 551.691711,317.310822 551.455994,324.342194 
	C551.275940,329.710052 548.057983,333.391846 542.049500,335.104462 
	C534.313477,337.309479 533.609497,338.161591 533.527039,346.102875 
	C533.475220,351.100708 533.368530,356.102112 533.637146,361.098389 
	C533.867065,365.373871 536.039612,367.715668 540.353333,368.423248 
	C547.825562,369.648926 551.803284,373.661957 552.036865,379.796478 
	C552.262268,385.714233 548.135864,390.493561 541.235596,392.306946 
	C534.806519,393.996460 533.709778,395.292664 533.550598,401.956329 
	C533.427246,407.119934 533.327942,412.293365 533.615417,417.451660 
	C533.916077,422.845123 535.539490,424.557739 540.698303,425.433289 
	C547.740173,426.628479 551.698975,430.531281 552.043945,436.618500 
	C552.368530,442.344727 548.294067,447.366058 541.885925,449.137085 
	C534.425659,451.198944 533.632751,452.156219 533.528259,459.765991 
	C533.464172,464.430725 533.423035,469.097656 533.599609,473.763000 
	C533.757874,477.944611 535.626160,480.714661 539.897949,481.560364 
	C540.388977,481.657623 540.863953,481.817627 541.341309,481.965820 
	C548.296082,484.124512 552.133057,488.476257 552.054504,494.114197 
	C551.978699,499.553375 548.145935,503.892731 541.580261,505.972931 
	C534.397400,508.248627 533.552856,509.270081 533.529297,516.985535 
	C533.460144,539.650574 533.449402,562.316101 533.533203,584.981140 
	C533.565308,593.666809 535.399170,595.452515 544.251221,595.473328 
	C575.082520,595.545959 605.913940,595.483521 636.745361,595.508179 
	C639.661682,595.510498 642.645630,595.252869 645.333557,597.783020 
z"/>
<path fill="#D9D9D9" opacity="1.000000" stroke="none" 
	d="
M645.669189,597.483032 
	C641.915588,598.039673 638.091919,598.290039 634.268066,598.293762 
	C602.452759,598.324951 570.637512,598.319336 538.822205,598.304016 
	C530.950378,598.300171 530.764648,598.107666 530.760315,590.134155 
	C530.746155,563.815735 530.742859,537.497314 530.765381,511.178925 
	C530.771362,504.159760 530.859680,504.119049 537.988403,503.630798 
	C545.000916,503.150513 548.957031,500.039795 549.327148,494.715149 
	C549.737061,488.816742 545.666443,484.959015 538.436829,484.394409 
	C530.795837,483.797699 530.777649,483.797729 530.759827,476.270782 
	C530.741272,468.441925 530.888611,460.610260 530.716125,452.785278 
	C530.623962,448.603760 532.068359,446.456238 536.480286,446.846954 
	C537.632141,446.948944 538.817383,446.858337 539.971313,446.721375 
	C545.852539,446.023346 549.516296,442.195099 549.342896,436.988403 
	C549.164490,431.630341 545.501892,428.258850 539.457886,427.924805 
	C537.961853,427.842102 536.461121,427.837585 534.962280,427.814392 
	C532.394226,427.774658 530.841309,426.648987 530.838562,423.921783 
	C530.828552,413.928497 530.832825,403.935181 530.833923,393.941895 
	C530.834290,390.935516 532.561035,389.908142 535.324219,389.885834 
	C537.813721,389.865692 540.336914,389.996368 542.744812,389.129364 
	C547.185913,387.530273 549.531982,384.412170 549.308411,379.645264 
	C549.091064,375.011566 545.838989,371.693848 541.107971,371.033722 
	C530.753906,369.588989 530.753113,369.588989 530.753540,359.083130 
	C530.753784,352.586823 530.959656,346.082123 530.692017,339.596954 
	C530.493713,334.792877 531.975403,332.271301 537.171875,332.812317 
	C538.631287,332.964264 540.182007,332.744049 541.628906,332.418976 
	C546.676575,331.284973 549.489746,327.604736 549.169495,322.749878 
	C548.867493,318.170197 545.705322,314.958588 540.895508,314.138885 
	C537.835876,313.617462 533.950806,315.391876 531.837952,312.760925 
	C529.471436,309.814117 530.871704,305.679199 530.796204,302.070404 
	C530.653381,295.244049 530.882385,288.409760 530.725891,281.584045 
	C530.634277,277.588470 532.092896,275.868713 536.258240,275.952881 
	C546.747681,276.164825 557.243103,276.085297 568.180969,276.140137 
	C582.263550,333.035828 595.897583,389.914886 609.540039,446.791901 
	C621.554932,496.883240 633.579102,546.972351 645.669189,597.483032 
z"/>
<path fill="#D8D8D8" opacity="1.000000" stroke="none" 
	d="
M473.611755,276.612335 
	C484.931030,276.163300 496.085175,276.132050 507.238007,275.993561 
	C510.440125,275.953857 511.772156,277.427460 511.763672,280.509796 
	C511.737030,290.168243 511.736877,299.826935 511.764191,309.485382 
	C511.772888,312.562134 510.458923,314.125610 507.247650,314.007690 
	C505.256012,313.934509 503.233337,313.935303 501.263367,314.195862 
	C496.422821,314.836029 493.224487,318.217316 492.967102,322.727997 
	C492.690826,327.570740 495.539673,331.247162 500.526428,332.432922 
	C501.331635,332.624359 502.178802,332.817780 502.992188,332.769135 
	C512.625427,332.193420 511.758270,334.008545 511.791229,342.168915 
	C511.820801,349.496246 511.595734,356.830994 511.862061,364.148682 
	C512.037964,368.981445 510.513916,371.460297 505.349762,370.909821 
	C503.877625,370.752869 502.342560,370.886505 500.868378,371.104095 
	C496.229950,371.788666 493.231842,374.948944 492.972076,379.393585 
	C492.695435,384.127045 494.748230,387.497528 499.263947,389.007538 
	C501.114838,389.626495 503.214478,389.944519 505.149384,389.782684 
	C510.097809,389.368774 512.049744,391.258728 511.872925,396.338440 
	C511.571899,404.987793 511.681976,413.656586 511.821777,422.313934 
	C511.887299,426.370270 510.255707,428.171936 506.186340,427.891815 
	C504.534546,427.778137 502.845520,427.855865 501.200317,428.061523 
	C496.283875,428.676056 493.200562,431.908630 492.952454,436.557007 
	C492.697418,441.334473 495.212524,444.915375 499.884979,446.238922 
	C501.150818,446.597473 502.501038,446.735260 503.821838,446.809875 
	C511.767181,447.258698 511.779572,447.242615 511.793793,454.998688 
	C511.807495,462.492645 511.552704,469.997070 511.875488,477.477081 
	C512.100220,482.684753 510.135254,484.867218 504.968079,484.496063 
	C503.336975,484.378876 501.634613,484.690247 500.017761,485.045898 
	C495.520782,486.035217 493.212982,488.993011 492.962219,493.517883 
	C492.706177,498.137909 495.209686,501.792572 499.610474,502.821686 
	C502.181000,503.422852 504.884369,503.527863 507.538086,503.680878 
	C510.107910,503.829102 511.685211,504.907562 511.688477,507.596008 
	C511.710785,526.035461 511.700165,544.474854 511.700165,563.026978 
	C509.274902,562.915405 509.089386,561.104431 508.417603,559.965332 
	C485.241333,520.664062 462.109283,481.336670 438.990448,442.001526 
	C437.653900,439.727539 435.953705,437.564240 436.029144,434.309570 
	C444.156738,399.538330 452.357452,365.144836 460.570557,330.754242 
	C464.851196,312.829926 469.153595,294.910828 473.611755,276.612335 
z"/>
<path fill="#D8D8D8" opacity="1.000000" stroke="none" 
	d="
M428.932495,463.392822 
	C442.103088,484.962463 455.142792,506.852356 468.104828,528.788147 
	C480.730988,550.155518 493.283325,571.566467 505.855194,592.965881 
	C508.962006,598.254211 508.753448,598.663452 502.647369,598.670471 
	C467.498322,598.710693 432.349243,598.717468 396.754700,598.800659 
	C407.128662,553.821472 417.948151,508.777283 428.932495,463.392822 
z"/>
<path fill="#D8D8D8" opacity="1.000000" stroke="none" 
	d="
M397.890533,751.590332 
	C398.504669,750.877136 399.108337,750.412231 399.719482,750.402222 
	C414.618805,750.156555 429.522430,749.514160 444.776489,750.932129 
	C445.126495,756.139221 445.288391,761.136780 445.061951,766.116699 
	C444.509979,778.253967 434.375336,787.877991 422.223663,788.003052 
	C409.197113,788.137085 398.752533,778.969116 398.004181,766.516968 
	C397.715302,761.709778 397.909485,756.873474 397.890533,751.590332 
z"/>
<path fill="#D8D8D8" opacity="1.000000" stroke="none" 
	d="
M596.992432,751.481506 
	C598.485535,750.091248 600.167603,750.140503 601.820862,750.138794 
	C614.267517,750.125732 626.714233,750.111145 639.160645,750.165161 
	C640.625488,750.171509 642.088440,750.590820 643.926697,751.044373 
	C644.276611,756.257385 644.488586,761.259277 644.181580,766.229126 
	C643.385132,779.122498 633.101807,788.194214 619.782715,788.002930 
	C607.559937,787.827393 597.450012,777.847961 597.031311,765.418335 
	C596.880188,760.933167 596.999023,756.438965 596.992432,751.481506 
z"/>
</svg>