<svg version="1.1" id="Layer_1" xmlns="http://www.w3.org/2000/svg" xmlns:xlink="http://www.w3.org/1999/xlink" x="0px" y="0px"
	 width="100%" viewBox="0 0 1024 1024" enable-background="new 0 0 1024 1024" xml:space="preserve">
<path fill="#000000" opacity="1.000000" stroke="none" 
	d="
M498.000000,1025.000000 
	C333.500000,1025.000000 169.499985,1024.985107 5.500062,1025.093872 
	C1.750664,1025.096313 0.905801,1024.249146 0.906913,1020.500000 
	C1.007246,682.166687 1.007246,343.833344 0.906913,5.500028 
	C0.905801,1.750903 1.750902,0.905800 5.500028,0.906912 
	C343.833344,1.007255 682.166687,1.007255 1020.500000,0.906912 
	C1024.249146,0.905800 1025.094360,1.750902 1025.093262,5.500027 
	C1024.992920,343.833344 1024.992798,682.166687 1025.093140,1020.500000 
	C1025.094238,1024.249146 1024.249268,1025.096069 1020.499939,1025.093750 
	C846.500000,1024.985962 672.500000,1025.000000 498.000000,1025.000000 
z"/>
<path fill="#FBFBFB" opacity="1.000000" stroke="none" 
	d="
M288.061829,691.854126 
	C288.060455,634.053345 288.055023,576.732971 288.062500,519.412537 
	C288.065308,497.811920 301.952576,483.863464 323.675354,483.838074 
	C371.331207,483.782318 418.987488,483.744293 466.642578,483.942780 
	C471.198334,483.961731 471.975342,482.654114 471.961731,478.442871 
	C471.807922,430.787445 472.298401,383.125244 471.631439,335.478668 
	C471.394440,318.547516 484.019409,299.916565 507.079742,300.048676 
	C564.231628,300.376190 621.386719,300.137695 678.540466,300.165985 
	C699.221497,300.176208 709.335999,308.736023 712.976074,329.258118 
	C716.380249,348.450256 715.295227,367.791107 714.497375,387.085510 
	C712.976013,423.875916 710.858459,460.647919 712.948486,497.490143 
	C713.240051,502.629517 714.502686,507.723938 713.686035,512.926025 
	C710.910828,530.603882 697.355164,542.125854 678.849670,542.154480 
	C631.527100,542.227661 584.204407,542.164429 536.881714,542.195251 
	C529.251221,542.200195 530.184265,541.193787 530.179810,548.721497 
	C530.152161,595.544312 529.673767,642.374573 530.387878,689.186462 
	C530.710999,710.366211 514.954346,726.416199 493.185730,726.198669 
	C436.537476,725.632751 379.879791,726.036072 323.225922,725.993652 
	C302.868958,725.978394 288.960938,712.582214 288.061829,691.854126 
z"/>
<path fill="#010101" opacity="1.000000" stroke="none" 
	d="
M532.000122,316.844788 
	C580.804688,316.844849 629.111694,317.110962 677.412170,316.667755 
	C690.339661,316.549164 697.354187,325.079224 697.283813,336.635712 
	C696.940918,392.933441 697.134094,449.234375 697.124939,505.534180 
	C697.122681,519.135681 690.908997,525.457397 677.372742,525.466919 
	C629.901001,525.500122 582.429077,525.426270 534.957825,525.577026 
	C530.908752,525.589905 530.049316,524.380188 530.071838,520.554810 
	C530.175842,502.915924 522.601501,491.288269 507.932098,485.742493 
	C502.818481,483.809326 497.511017,483.659058 492.189270,483.877930 
	C489.404022,483.992523 488.436188,483.194733 488.441071,480.277802 
	C488.522552,431.640228 488.429260,383.002289 488.561493,334.364960 
	C488.591888,323.176392 495.274597,316.948273 506.514801,316.858459 
	C514.842712,316.791931 523.171631,316.845001 532.000122,316.844788 
z"/>
<path fill="#010101" opacity="1.000000" stroke="none" 
	d="
M305.245789,696.173462 
	C305.055420,693.594482 304.907898,691.431885 304.907410,689.269287 
	C304.895020,632.964172 305.118622,576.657471 304.720947,520.355225 
	C304.636475,508.396912 312.015137,500.304260 324.597168,500.377045 
	C380.900360,500.702698 437.206543,500.509918 493.511627,500.523987 
	C507.473175,500.527466 513.548889,506.636597 513.553162,520.693298 
	C513.570374,576.831848 513.572754,632.970337 513.554138,689.108887 
	C513.549561,702.935974 507.268188,709.149841 493.371765,709.152161 
	C437.066650,709.161499 380.761566,709.162659 324.456451,709.149780 
	C313.772095,709.147339 308.700500,705.775085 305.245789,696.173462 
z"/>
<path fill="#FCFCFC" opacity="1.000000" stroke="none" 
	d="
M574.679443,403.702637 
	C583.230225,395.854462 592.741699,393.838379 603.063721,398.256287 
	C612.261169,402.192932 617.091736,409.730591 617.850098,419.642822 
	C618.688782,430.603577 612.131409,440.546204 601.702881,444.683899 
	C592.196289,448.455811 580.331970,445.351196 573.617432,437.334595 
	C566.830200,429.231140 565.912415,417.005676 571.468201,407.964508 
	C572.333740,406.556122 573.434265,405.292175 574.679443,403.702637 
z"/>
<path fill="#FCFCFC" opacity="1.000000" stroke="none" 
	d="
M554.350952,352.001587 
	C557.045837,366.480499 550.539734,378.141846 537.742432,382.391754 
	C526.611206,386.088379 513.450500,380.656677 508.028381,370.128174 
	C501.387024,357.232178 506.952026,341.252167 519.993530,335.770142 
	C534.422485,329.704926 549.243103,336.557251 554.350952,352.001587 
z"/>
<path fill="#FCFCFC" opacity="1.000000" stroke="none" 
	d="
M644.500122,461.279724 
	C656.392578,456.950531 666.931152,459.067780 674.113831,466.991241 
	C680.747986,474.309662 682.347168,485.442841 678.059509,494.460388 
	C673.675293,503.680969 663.790649,509.543304 653.821106,508.835571 
	C643.554626,508.106781 634.426086,500.798645 631.491333,490.958771 
	C628.457642,480.787048 631.906067,470.262299 640.402954,463.885681 
	C641.593140,462.992462 642.901672,462.256927 644.500122,461.279724 
z"/>
<path fill="#FDFDFD" opacity="1.000000" stroke="none" 
	d="
M397.920654,627.270996 
	C387.602631,621.114258 382.696930,611.567444 384.347809,601.351562 
	C386.100800,590.503906 393.689972,582.422607 404.195312,580.217102 
	C414.005066,578.157654 424.606140,582.626160 430.193237,591.175598 
	C436.067535,600.164429 435.357361,612.734253 428.510132,620.966919 
	C421.107117,629.867798 409.557770,632.339661 397.920654,627.270996 
z"/>
<path fill="#FCFCFC" opacity="1.000000" stroke="none" 
	d="
M447.180237,662.641113 
	C451.146729,649.535278 460.259186,642.361023 472.174042,642.601196 
	C483.566010,642.830872 493.310638,650.274780 495.940582,661.036072 
	C498.461060,671.349426 495.718140,680.209900 487.441956,686.892517 
	C479.341919,693.432983 470.172058,694.494995 460.844421,689.892334 
	C451.343658,685.204163 446.662628,677.234558 446.862274,666.546265 
	C446.883942,665.384583 447.019745,664.225098 447.180237,662.641113 
z"/>
<path fill="#FCFCFC" opacity="1.000000" stroke="none" 
	d="
M370.990234,547.762329 
	C366.904816,560.068054 358.455139,566.932800 347.543579,567.169800 
	C336.584503,567.407898 327.178894,561.319397 323.249115,551.443665 
	C319.503418,542.030457 322.069214,530.676575 329.450989,524.000061 
	C337.476837,516.741028 349.043823,515.270935 358.651276,520.288940 
	C367.437012,524.877747 372.620483,535.143616 371.319977,545.383545 
	C371.236176,546.043335 371.136414,546.701050 370.990234,547.762329 
z"/>
<path fill="#FCFCFC" opacity="1.000000" stroke="none" 
	d="
M355.455780,644.178345 
	C367.838287,649.766663 373.463623,660.442505 370.986572,673.037292 
	C368.923309,683.528076 359.046265,691.869324 347.936249,692.503235 
	C336.501617,693.155762 325.823273,685.837158 322.657684,674.706360 
	C320.007721,665.388489 321.831421,656.792297 328.826630,649.894775 
	C336.242096,642.582886 345.216156,641.036194 355.455780,644.178345 
z"/>
<path fill="#FDFDFD" opacity="1.000000" stroke="none" 
	d="
M478.849091,566.248230 
	C465.836304,569.060547 454.340729,563.845215 449.155701,553.072632 
	C444.187103,542.749695 446.963501,530.050781 456.022369,522.915527 
	C464.385132,516.328491 473.683838,515.459717 483.132446,520.064758 
	C492.134552,524.452026 496.757599,532.218201 496.789337,542.125732 
	C496.821747,552.251465 491.963104,559.864624 482.932007,564.643311 
	C481.767517,565.259460 480.479797,565.642822 478.849091,566.248230 
z"/>
</svg>