<svg class="options-icon" version="1.1" id="Layer_1" xmlns="http://www.w3.org/2000/svg" xmlns:xlink="http://www.w3.org/1999/xlink" x="0px" y="0px"
	 width="100%" viewBox="0 0 1024 1024" enable-background="new 0 0 1024 1024" xml:space="preserve">
<path fill="#000000" opacity="0.000000" stroke="none" 
	d="
M447.000000,1025.000000 
	C299.500000,1025.000000 152.499985,1024.983521 5.500071,1025.094116 
	C1.750606,1025.096924 0.905801,1024.249146 0.906913,1020.500000 
	C1.007246,682.166687 1.007246,343.833344 0.906913,5.500028 
	C0.905801,1.750903 1.750902,0.905800 5.500028,0.906912 
	C343.833344,1.007255 682.166687,1.007255 1020.500000,0.906912 
	C1024.249146,0.905800 1025.094360,1.750902 1025.093262,5.500027 
	C1024.992920,343.833344 1024.992798,682.166687 1025.093140,1020.500000 
	C1025.094238,1024.249146 1024.249268,1025.095825 1020.499939,1025.093750 
	C829.500000,1024.987305 638.500000,1025.000000 447.000000,1025.000000 
z"/>
<path fill="#FEFEFE" opacity="1.000000" stroke="none" 
	d="
M484.132019,740.836731 
	C456.517090,728.110229 429.252533,715.524597 401.598480,702.759216 
	C451.021942,665.229126 500.028412,628.015747 549.744446,590.263489 
	C551.207947,600.854858 552.599670,610.767700 553.942261,620.687256 
	C555.326294,630.912537 556.728088,641.136230 557.969299,651.379150 
	C558.246582,653.667908 558.744080,654.162842 560.998718,653.219543 
	C614.226135,630.950195 651.271118,594.796753 661.723389,535.863037 
	C662.562866,531.129700 662.913147,526.259827 662.942688,521.450073 
	C662.962463,518.214844 663.769165,516.833984 667.182007,516.420654 
	C686.513855,514.078796 705.829651,511.594086 725.121216,508.941437 
	C728.666321,508.453979 729.132935,509.718018 729.175476,512.772278 
	C729.623962,544.961243 722.872437,575.584412 708.548645,604.352234 
	C681.957520,657.757446 638.628723,692.561584 584.285400,714.859314 
	C579.988342,716.622559 575.658997,718.397827 571.197693,719.639465 
	C568.055420,720.514038 567.490051,721.994934 567.913208,724.976624 
	C570.227966,741.288940 572.370667,757.625854 574.554993,773.956604 
	C574.902771,776.556396 575.161804,779.168091 575.590271,782.889832 
	C544.666016,768.663818 514.574219,754.820740 484.132019,740.836731 
z"/>
<path fill="#FEFEFE" opacity="1.000000" stroke="none" 
	d="
M469.600891,388.515930 
	C469.001129,384.114502 468.351776,380.164124 468.024902,376.187195 
	C467.803253,373.490448 467.395844,372.166046 464.187592,373.509613 
	C416.189148,393.610779 380.415558,425.152405 366.657867,477.376648 
	C364.919678,483.974762 363.346436,490.637604 363.010925,497.468262 
	C362.842590,500.894775 361.395020,501.743469 358.161774,502.124817 
	C338.821411,504.405853 319.492798,506.817719 300.213745,509.561615 
	C296.323059,510.115356 295.838348,509.130188 295.957123,505.710297 
	C297.201416,469.892303 306.895966,436.591003 325.602264,406.001831 
	C352.966614,361.254913 392.664490,331.543060 440.680756,312.077484 
	C445.447052,310.145203 450.304932,308.416901 455.192902,306.815582 
	C457.773682,305.970154 458.750336,304.980225 458.314789,301.901154 
	C455.820465,284.268341 453.643219,266.590668 451.370789,248.926605 
	C451.181366,247.454163 451.083984,245.969894 450.857483,243.580399 
	C508.953705,270.635864 566.470581,297.421570 624.564026,324.475769 
	C575.013855,361.722076 525.840637,398.684998 475.779602,436.315308 
	C473.682739,420.011536 471.685669,404.483612 469.600891,388.515930 
z"/>
</svg>